# xmcd
#
# Track frame offsets:
#	150
#	24602
#	51705
#	71772
#	92652
#	110529
#	132476
#	158707
#	185205
#	203143
#	228924
#	247042
#	266696
#	281805
#	302789
#	320455
#
# Disc length: 4511 seconds
#
# Revision: 1
# Processed by: cddbd v1.5.2PL0 Copyright (c) Steve Scherf et al.
# Submitted via: audiograbber 1.83.01
#
DISCID=f8119d10
DTITLE=Candi Staton - Gospel Collection #2
DYEAR=2006
DGENRE=Gospel
TTITLE0=It큦 Your Season
TTITLE1=Hallelujah Anyway Remix
TTITLE2=I Will Rejoice In The House
TTITLE3=What큦 Going On?
TTITLE4=He Steps In
TTITLE5=When I See The Blood
TTITLE6=Dance Dance Dance
TTITLE7=The Blood Rushes
TTITLE8=Stand Up And Be A Witness
TTITLE9=Sing A Song
TTITLE10=God큦 Got In
TTITLE11=You Got The Love
TTITLE12=He Set Me Free
TTITLE13=Nothing Can Separate Me
TTITLE14=Let Go And Let God
TTITLE15=He큦 Coming Back
EXTD=
EXTT0=
EXTT1=
EXTT2=
EXTT3=
EXTT4=
EXTT5=
EXTT6=
EXTT7=
EXTT8=
EXTT9=
EXTT10=
EXTT11=
EXTT12=
EXTT13=
EXTT14=
EXTT15=
PLAYORDER=
